<?xml version="1.0" encoding="utf-8"?>
<!-- Generator: Adobe Illustrator 22.1.0, SVG Export Plug-In . SVG Version: 6.00 Build 0)  -->
<svg version="1.1" id="Слой_1" xmlns="http://www.w3.org/2000/svg" xmlns:xlink="http://www.w3.org/1999/xlink" x="0px" y="0px"
	 viewBox="0 0 1024 1024" style="enable-background:new 0 0 1024 1024;" xml:space="preserve">
<g>
	<polygon points="602.6,226.5 534.9,226.5 517.5,284.9 544.9,365.4 561.9,308.4 632.5,528.6 702.4,528.6 	"/>
	<polygon points="490.9,374.4 468.8,448.7 396,226.5 327,226.5 309.3,281.2 338.3,366.7 356.7,308.4 429.4,528.6 496.1,528.6 
		518.2,454.6 	"/>
</g>
<polygon points="281.6,367.3 229.4,528.7 287.5,528.7 311,453.9 "/>
<g>
	<polygon points="478.3,661.2 462,715.6 391.4,495.4 321.5,495.4 421.3,797.5 489,797.5 505,743.7 	"/>
	<polygon points="667.2,715.6 594.5,495.4 527.8,495.4 508.5,560.1 535.2,642.3 555.1,575.3 627.9,797.5 696.9,797.5 711,754.1 
		682.6,666.8 	"/>
</g>
<polygon points="742.4,656.4 794.6,495 736.5,495 713.6,567.8 "/>
</svg>
